HIERARCHY
ROOT Hips
{
	OFFSET 0.000000 0.000000 0.000000
	CHANNELS 6 Xposition Yposition Zposition Zrotation Yrotation Xrotation 
	JOINT LHipJoint
	{
		OFFSET 0.000000 0.000000 0.000000
		CHANNELS 3 Zrotation Yrotation Xrotation
		JOINT LeftUpLeg
		{
			OFFSET 1.363060 -1.794630 0.839290
			CHANNELS 3 Zrotation Yrotation Xrotation
			JOINT LeftLeg
			{
				OFFSET 2.448110 -6.726130 0.000000
				CHANNELS 3 Zrotation Yrotation Xrotation
				JOINT LeftFoot
				{
					OFFSET 2.562200 -7.039590 0.000000
					CHANNELS 3 Zrotation Yrotation Xrotation
					JOINT LeftToeBase
					{
						OFFSET 0.157640 -0.433110 2.322550
						CHANNELS 3 Zrotation Yrotation Xrotation
						End Site
						{
							OFFSET 0.000000 0.000000 0.000000
						}
					}
				}
			}
		}
	}
	JOINT RHipJoint
	{
		OFFSET 0.000000 0.000000 0.000000
		CHANNELS 3 Zrotation Yrotation Xrotation
		JOINT RightUpLeg
		{
			OFFSET -1.305520 -1.794630 0.839290
			CHANNELS 3 Zrotation Yrotation Xrotation
			JOINT RightLeg
			{
				OFFSET -2.542530 -6.985550 0.000000
				CHANNELS 3 Zrotation Yrotation Xrotation
				JOINT RightFoot
				{
					OFFSET -2.568260 -7.056230 0.000000
					CHANNELS 3 Zrotation Yrotation Xrotation
					JOINT RightToeBase
					{
						OFFSET -0.164730 -0.452590 2.363150
						CHANNELS 3 Zrotation Yrotation Xrotation
						End Site
						{
							OFFSET 0.000000 0.000000 0.000000
						}
					}
				}
			}
		}
	}
	JOINT LowerBack
	{
		OFFSET 0.000000 0.000000 0.000000
		CHANNELS 3 Zrotation Yrotation Xrotation
		JOINT Spine
		{
			OFFSET 0.028270 2.035590 -0.193380
			CHANNELS 3 Zrotation Yrotation Xrotation
			JOINT Spine1
			{
				OFFSET 0.056720 2.048850 -0.042750
				CHANNELS 3 Zrotation Yrotation Xrotation
				JOINT Neck
				{
					OFFSET 0.000000 0.000000 0.000000
					CHANNELS 3 Zrotation Yrotation Xrotation
					JOINT Neck1
					{
						OFFSET -0.054170 1.746240 0.172020
						CHANNELS 3 Zrotation Yrotation Xrotation
						JOINT Head
						{
							OFFSET 0.104070 1.761360 -0.123970
							CHANNELS 3 Zrotation Yrotation Xrotation
							End Site
							{
								OFFSET 0.000000 0.000000 0.000000
							}
						}
					}
				}
				JOINT LeftShoulder
				{
					OFFSET 0.000000 0.000000 0.000000
					CHANNELS 3 Zrotation Yrotation Xrotation
					JOINT LeftArm
					{
						OFFSET 3.362410 1.200890 -0.311210
						CHANNELS 3 Zrotation Yrotation Xrotation
						JOINT LeftForeArm
						{
							OFFSET 4.983000 -0.000000 -0.000000
							CHANNELS 3 Zrotation Yrotation Xrotation
							JOINT LeftHand
							{
								OFFSET 3.483560 -0.000000 -0.000000
								CHANNELS 3 Zrotation Yrotation Xrotation
								JOINT LeftFingerBase
								{
									OFFSET 0.000000 0.000000 0.000000
									CHANNELS 3 Zrotation Yrotation Xrotation
									JOINT LeftHandIndex1
									{
										OFFSET 0.715260 -0.000000 -0.000000
										CHANNELS 3 Zrotation Yrotation Xrotation
										End Site
										{
											OFFSET 0.000000 0.000000 0.000000
										}
									}
								}
								JOINT LThumb
								{
									OFFSET 0.000000 0.000000 0.000000
									CHANNELS 3 Zrotation Yrotation Xrotation
									End Site
									{
										OFFSET 0.000000 0.000000 0.000000
									}
								}
							}
						}
					}
				}
				JOINT RightShoulder
				{
					OFFSET 0.000000 0.000000 0.000000
					CHANNELS 3 Zrotation Yrotation Xrotation
					JOINT RightArm
					{
						OFFSET -3.136600 1.374050 -0.404650
						CHANNELS 3 Zrotation Yrotation Xrotation
						JOINT RightForeArm
						{
							OFFSET -5.241900 -0.000000 -0.000000
							CHANNELS 3 Zrotation Yrotation Xrotation
							JOINT RightHand
							{
								OFFSET -3.444170 -0.000000 -0.000000
								CHANNELS 3 Zrotation Yrotation Xrotation
								JOINT RightFingerBase
								{
									OFFSET 0.000000 0.000000 0.000000
									CHANNELS 3 Zrotation Yrotation Xrotation
									JOINT RightHandIndex1
									{
										OFFSET -0.622530 -0.000000 -0.000000
										CHANNELS 3 Zrotation Yrotation Xrotation
										End Site
										{
											OFFSET 0.000000 0.000000 0.000000
										}
									}
								}
								JOINT RThumb
								{
									OFFSET 0.000000 0.000000 0.000000
									CHANNELS 3 Zrotation Yrotation Xrotation
									End Site
									{
										OFFSET 0.000000 0.000000 0.000000
									}
								}
							}
						}
					}
				}
			}
		}
	}
}
MOTION
Frames: 11
Frame Time: 0.008333
4.930539 17.297403 0.964372 -176.352536 -62.852013 -175.572321 -12.316503 2.375233 -1.194802 -5.632850 30.426806 -11.783921 -2.467846 -1.189271 4.355388 2.085739 14.995214 -5.518843 0.476600 0.000001 -25.682500 8.000527 -2.882257 6.327992 5.018601 10.523773 -9.845574 3.592916 1.501325 -3.214050 1.690086 11.782572 4.168355 1.806100 0.000000 -37.474800 4.953330 1.126131 -7.061111 0.294857 0.504742 -5.345442 -4.927483 0.580148 -6.110544 5.256022 3.258011 7.468724 -1.623255 -0.348000 4.189771 0.000000 0.000000 0.000000 12.491085 7.167421 -6.024534 -24.884766 -60.707404 -46.918752 175.316235 -57.190844 179.540080 28.056080 -19.421363 -5.342934 -0.443214 1.381489 -0.000000 0.000000 0.000000 0.000000 0.000000 0.000000 0.000000 -2.679829 1.240301 -8.539197 77.393032 60.781799 -0.556304 -174.386511 57.648834 179.599307 -19.810686 24.942389 -4.703322 0.034929 -1.356843 -0.000000 0.000000 0.000000 0.000000 0.000000 0.000000 0.000000 
4.924169 17.299153 0.966396 -176.357720 -62.101243 -175.360778 -12.333671 2.384500 -1.237254 -5.784366 30.798092 -12.036708 -2.495871 -1.191676 4.353496 2.122008 15.230217 -5.558488 0.478099 -0.000000 -25.549301 7.962815 -2.866818 6.440037 4.954908 10.925826 -10.343520 3.617019 1.484158 -2.911733 1.731602 12.132509 4.223065 1.882200 -0.000000 -37.586300 5.015378 1.057206 -7.143907 0.321750 0.425440 -5.375413 -4.909634 0.496701 -6.158368 5.297530 3.190287 7.425539 -1.605648 -0.346748 4.181464 0.000000 0.000000 0.000000 12.740060 7.016611 -6.061757 -23.384596 -60.166025 -48.490695 175.378583 -57.945075 179.537813 28.482078 -19.791990 -5.524847 -0.446324 1.379367 -0.000000 0.000000 0.000000 0.000000 0.000000 0.000000 0.000000 -2.651191 1.253151 -8.509405 77.476127 60.911106 -0.444211 -174.397937 57.759891 179.598819 -19.862986 24.908081 -4.709323 0.035332 -1.355094 -0.000000 0.000000 0.000000 0.000000 0.000000 0.000000 0.000000 
4.918861 17.300947 0.968548 -176.362380 -61.353910 -175.145572 -12.349494 2.397646 -1.284533 -5.943658 31.190376 -12.293135 -2.529847 -1.192587 4.326442 2.151358 15.423368 -5.580751 0.481900 -0.000000 -25.427400 7.927450 -2.845640 6.547137 4.888097 11.319534 -10.839181 3.640462 1.468966 -2.621765 1.772249 12.471626 4.286328 1.957700 0.000001 -37.693301 5.067120 0.964655 -7.217256 0.348993 0.323087 -5.405647 -4.891962 0.389946 -6.215090 5.351174 3.124396 7.376013 -1.586630 -0.345313 4.171797 0.000000 0.000000 0.000000 12.990572 6.810541 -6.092970 -21.751770 -59.520707 -50.186035 175.463665 -58.897264 179.535332 28.972469 -20.198136 -5.732266 -0.449090 1.375877 -0.000000 0.000000 0.000000 0.000000 0.000000 0.000000 0.000000 -2.602280 1.282975 -8.472060 77.546711 61.065647 -0.336622 -174.410956 57.886162 179.598219 -19.936492 24.860010 -4.717825 0.036249 -1.352855 0.000000 0.000000 0.000000 0.000000 0.000000 0.000000 0.000000 
4.914840 17.302720 0.970729 -176.365996 -60.617369 -174.926862 -12.363032 2.414786 -1.335430 -6.111491 31.595401 -12.555276 -2.569404 -1.191624 4.277224 2.173995 15.574783 -5.587129 0.487900 0.000001 -25.318100 7.895151 -2.818029 6.648421 4.818709 11.702378 -11.330347 3.663017 1.456331 -2.347317 1.811405 12.793169 4.356180 2.031200 -0.000001 -37.791099 5.104861 0.846014 -7.281685 0.376046 0.195460 -5.435955 -4.874307 0.257684 -6.279483 5.421213 3.060302 7.318180 -1.566107 -0.343663 4.160248 0.000000 0.000000 0.000000 13.258221 6.542495 -6.113961 -20.020391 -58.754021 -51.991890 175.574707 -60.057472 179.532877 29.510688 -20.620263 -5.957495 -0.451117 1.370538 -0.000000 0.000000 0.000000 0.000000 0.000000 0.000000 0.000000 -2.529540 1.330638 -8.426717 77.602254 61.245190 -0.237524 -174.426714 58.030557 179.597555 -20.026708 24.800131 -4.728028 0.037583 -1.350160 0.000000 0.000000 0.000000 0.000000 0.000000 0.000000 0.000000 
4.912240 17.304439 0.972935 -176.366139 -59.898690 -174.707360 -12.373645 2.435871 -1.389544 -6.286088 32.006899 -12.822236 -2.614056 -1.188313 4.209042 2.190039 15.684202 -5.579194 0.495800 0.000000 -25.223300 7.866619 -2.783374 6.742241 4.748413 12.070920 -11.811483 3.684566 1.446681 -2.091970 1.848548 13.091419 4.432276 2.101501 -0.000000 -37.880100 5.125712 0.699174 -7.335706 0.402456 0.040703 -5.465357 -4.856732 0.098122 -6.348813 5.512340 2.997626 7.249126 -1.543909 -0.341740 4.145987 0.000000 0.000000 0.000000 13.551568 6.215300 -6.120812 -18.222257 -57.865533 -53.896872 175.715157 -61.442082 179.530679 30.076331 -21.035476 -6.190536 -0.451971 1.362887 -0.000000 0.000000 0.000000 0.000000 0.000000 0.000000 0.000000 -2.429819 1.395110 -8.374266 77.642094 61.449375 -0.148207 -174.445220 58.190598 179.596858 -20.131072 24.728994 -4.739331 0.039300 -1.347057 0.000000 0.000000 0.000000 0.000000 0.000000 0.000000 0.000000 
4.911402 17.306121 0.975150 -176.363729 -59.204484 -174.489422 -12.380571 2.460589 -1.446397 -6.466009 32.418325 -13.093418 -2.663117 -1.182249 4.124446 2.199764 15.752735 -5.557156 0.505800 -0.000000 -25.143900 7.842612 -2.741076 6.827079 4.678869 12.421764 -12.278186 3.704950 1.440222 -1.858393 1.883252 13.361618 4.514398 2.167500 0.000000 -37.962800 5.126771 0.522919 -7.378105 0.427808 -0.142094 -5.492699 -4.838746 -0.089590 -6.419702 5.628519 2.935166 7.165773 -1.519824 -0.339482 4.128107 0.000000 0.000000 0.000000 13.880137 5.835395 -6.109970 -16.399443 -56.862066 -55.884872 175.887559 -63.065936 179.528916 30.648972 -21.424150 -6.421189 -0.451331 1.352688 -0.000000 0.000000 0.000000 0.000000 0.000000 0.000000 0.000000 -2.301329 1.473481 -8.316314 77.666875 61.677162 -0.069287 -174.466455 58.365589 179.596157 -20.245486 24.647355 -4.751033 0.041302 -1.343581 0.000000 0.000000 0.000000 0.000000 0.000000 0.000000 0.000000 
4.912229 17.307785 0.977338 -176.354738 -58.540327 -174.274857 -12.383496 2.488900 -1.504893 -6.650118 32.823576 -13.368241 -2.715865 -1.173372 4.025073 2.203618 15.782613 -5.521157 0.517900 -0.000000 -25.079900 7.823564 -2.691281 6.902205 4.611789 12.751560 -12.727605 3.724275 1.437231 -1.648889 1.915313 13.601009 4.603146 2.228800 0.000000 -38.044100 5.105887 0.317005 -7.409210 0.451795 -0.352978 -5.516861 -4.819925 -0.305476 -6.487923 5.773041 2.872056 7.065344 -1.493621 -0.336825 4.105771 0.000000 0.000000 0.000000 14.251300 5.413187 -6.078210 -14.597766 -55.759037 -57.936576 176.094541 -64.952275 179.527680 31.209762 -21.772906 -6.641052 -0.448939 1.339982 -0.000000 0.000000 0.000000 0.000000 0.000000 0.000000 0.000000 -2.143701 1.562076 -8.255145 77.679264 61.925622 0.000161 -174.490107 58.554424 179.595478 -20.366157 24.556636 -4.762135 0.043491 -1.339798 0.000000 0.000000 0.000000 0.000000 0.000000 0.000000 0.000000 
4.914997 17.309483 0.979499 -176.341386 -57.910729 -174.065915 -12.381967 2.520263 -1.564741 -6.836262 33.218334 -13.644738 -2.771514 -1.161576 3.912326 2.201911 15.775663 -5.470950 0.532300 -0.000000 -25.031800 7.810109 -2.633882 6.966322 4.548857 13.056209 -13.156411 3.742499 1.437582 -1.464680 1.944649 13.808749 4.699246 2.285300 0.000000 -38.131100 5.061161 0.082250 -7.427798 0.474195 -0.590802 -5.536460 -4.799263 -0.548367 -6.549698 5.947646 2.807292 6.946357 -1.465249 -0.333732 4.078453 0.000000 0.000000 0.000000 14.673974 4.958793 -6.023151 -12.869684 -54.575042 -60.028343 176.337560 -67.122375 179.526965 31.744941 -22.070672 -6.842927 -0.444826 1.325044 -0.000000 0.000000 0.000000 0.000000 0.000000 0.000000 0.000000 -1.957670 1.656092 -8.193582 77.681717 62.191503 0.060915 -174.515736 58.754618 179.594852 -20.486940 24.459231 -4.771838 0.045707 -1.335800 0.000000 0.000000 0.000000 0.000000 0.000000 0.000000 0.000000 
4.919534 17.311270 0.981639 -176.321299 -57.319883 -173.862774 -12.375968 2.554607 -1.624218 -7.024730 33.597069 -13.922958 -2.829211 -1.147232 3.786259 2.195296 15.735926 -5.405540 0.549500 0.000000 -24.997800 7.802380 -2.569825 7.019765 4.490910 13.333085 -13.564209 3.759750 1.441261 -1.306557 1.971320 13.984876 4.804282 2.337299 -0.000000 -38.230100 4.991883 -0.179252 -7.436086 0.494822 -0.853403 -5.550650 -4.776494 -0.816158 -6.600811 6.152590 2.739818 6.808376 -1.434875 -0.330189 4.045922 0.000000 0.000000 0.000000 15.149672 4.483797 -5.943390 -11.254502 -53.337030 -62.137235 176.618696 -69.607484 179.526681 32.244929 -22.314424 -7.022810 -0.439177 1.308465 -0.000000 0.000000 0.000000 0.000000 0.000000 0.000000 0.000000 -1.745399 1.749858 -8.134710 77.678975 62.468814 0.115989 -174.542659 58.963346 179.594304 -20.603551 24.356748 -4.779339 0.047834 -1.331668 0.000000 0.000000 0.000000 0.000000 0.000000 0.000000 0.000000 
4.925989 17.313266 0.983796 -176.296495 -56.771087 -173.668775 -12.365774 2.591313 -1.683364 -7.211899 33.957998 -14.197665 -2.888022 -1.130538 3.646328 2.184027 15.665712 -5.323694 0.569900 0.000000 -24.977600 7.800540 -2.499601 7.061406 4.439836 13.578240 -13.946519 3.776102 1.447924 -1.175164 1.995444 14.131371 4.919446 2.385400 0.000000 -38.347900 4.899444 -0.464555 -7.432207 0.513869 -1.137699 -5.558069 -4.751075 -1.105744 -6.638168 6.385462 2.668789 6.652313 -1.403026 -0.326222 4.008285 0.000000 0.000000 0.000000 15.675212 3.997850 -5.838269 -9.778847 -52.073344 -64.242512 176.939771 -72.438988 179.526653 32.707074 -22.500456 -7.178200 -0.432523 1.290986 -0.000000 0.000000 0.000000 0.000000 0.000000 0.000000 0.000000 -1.509610 1.838018 -8.081529 77.675292 62.753187 0.169865 -174.570614 59.179712 179.593865 -20.710538 24.251507 -4.783643 0.049729 -1.327462 0.000000 0.000000 0.000000 0.000000 0.000000 0.000000 0.000000 
4.934063 17.315538 0.986027 -176.264402 -56.267240 -173.486342 -12.352137 2.630184 -1.741123 -7.395641 34.298170 -14.464615 -2.946935 -1.112018 3.491159 2.168551 15.568555 -5.223595 0.593900 -0.000000 -24.969000 7.804313 -2.424520 7.091247 4.396835 13.788864 -14.300633 3.791781 1.457283 -1.070591 2.017256 14.251166 5.046797 2.430500 -0.000000 -38.490200 4.786344 -0.769868 -7.416815 0.531558 -1.439974 -5.557960 -4.723292 -1.413450 -6.658868 6.642168 2.592997 6.480403 -1.370433 -0.321886 3.966034 0.000000 0.000000 0.000000 16.242987 3.506301 -5.706959 -8.452394 -50.808177 -66.324354 177.303485 -75.653182 179.526673 33.131889 -22.627142 -7.307993 -0.425606 1.273519 -0.000000 0.000000 0.000000 0.000000 0.000000 0.000000 0.000000 -1.254429 1.914782 -8.036875 77.675880 63.039109 0.227328 -174.599054 59.400774 179.593552 -20.804486 24.145626 -4.784547 0.051300 -1.323262 0.000000 0.000000 0.000000 0.000000 0.000000 0.000000 0.000000 
